<svg xmlns="http://www.w3.org/2000/svg" viewBox="0 0 63.4 59.13"><defs><style>.cls-1{fill:#fff;}</style></defs><g id="Capa_2" data-name="Capa 2"><g id="_1" data-name="1"><path class="cls-1" d="M12.27,44.61l-.23,0a14.47,14.47,0,1,1,7.22-27.93A22.44,22.44,0,1,1,52.85,41.41,1.33,1.33,0,0,1,51,41a1.31,1.31,0,0,1,.42-1.82A19.76,19.76,0,0,0,41,2.64,19.84,19.84,0,0,0,21.49,18.71a1.27,1.27,0,0,1-.7.93,1.31,1.31,0,0,1-1.16,0,11.71,11.71,0,0,0-5.1-1.14,11.81,11.81,0,0,0-2,23.46,1.32,1.32,0,0,1-.22,2.63Z"/><path class="cls-1" d="M16.64,47.86a1.31,1.31,0,0,1-.48-1.8l3.43-6a1.32,1.32,0,1,1,2.29,1.32l-3.43,6A1.33,1.33,0,0,1,16.64,47.86Z"/><path class="cls-1" d="M25.1,47.86a1.32,1.32,0,0,1-.49-1.8l3.44-6a1.32,1.32,0,1,1,2.28,1.32l-3.43,6A1.32,1.32,0,0,1,25.1,47.86Z"/><path class="cls-1" d="M33.55,47.86a1.31,1.31,0,0,1-.48-1.8l3.43-6a1.32,1.32,0,1,1,2.29,1.32l-3.44,6A1.32,1.32,0,0,1,33.55,47.86Z"/><path class="cls-1" d="M42,47.86a1.31,1.31,0,0,1-.48-1.8l3.43-6a1.32,1.32,0,1,1,2.29,1.32l-3.43,6A1.33,1.33,0,0,1,42,47.86Z"/><path class="cls-1" d="M15.59,59a1.31,1.31,0,0,1-.49-1.8l3.44-5.95a1.32,1.32,0,0,1,2.28,1.32l-3.43,5.95A1.31,1.31,0,0,1,15.59,59Z"/><path class="cls-1" d="M24,59a1.31,1.31,0,0,1-.48-1.8L27,51.2a1.32,1.32,0,0,1,2.29,1.32l-3.44,5.95A1.31,1.31,0,0,1,24,59Z"/><path class="cls-1" d="M32.49,59a1.31,1.31,0,0,1-.48-1.8l3.43-5.95a1.32,1.32,0,0,1,1.81-.48,1.31,1.31,0,0,1,.48,1.8L34.3,58.47A1.32,1.32,0,0,1,32.49,59Z"/></g></g></svg>